<svg version="1.1" xmlns="http://www.w3.org/2000/svg" xmlns:xlink="http://www.w3.org/1999/xlink" width="159.53496" height="159.05932" viewBox="0,0,159.53496,159.05932"><g transform="translate(-160.23252,-100.47034)"><g data-paper-data="{&quot;isPaintingLayer&quot;:true}" fill-rule="nonzero" stroke-linecap="butt" stroke-linejoin="miter" stroke-miterlimit="10" stroke-dasharray="" stroke-dashoffset="0" style="mix-blend-mode: normal"><path d="M160.23252,259.52966v-159.05932h159.53496v159.05932z" fill="none" stroke="#65a965" stroke-width="0"/><path d="M239.01882,241.19248c0,0 -40.04637,-59.58815 -53.56024,-81.09716c-8.92295,-14.20199 -19.63273,-35.39861 -19.63273,-35.39861c0,0 42.66786,-4.36873 65.40777,-4.62907c26.18322,-0.29977 82.82294,2.93201 82.82294,2.93201c0,0 -13.3344,29.80852 -24.48608,47.37368c-13.43361,21.15945 -50.55166,70.81917 -50.55166,70.81917z" fill="#87a3ad" stroke="none" stroke-width="0"/><path d="M239.01882,241.19248c0,0 -42.92374,-53.60552 -56.43762,-75.11453c-8.92295,-14.202 -16.75536,-41.38124 -16.75536,-41.38124c0,0 0.90728,-2.44861 4.83728,3.31065c11.30288,16.56388 68.82312,104.63552 68.82312,104.63552c0,0 59.49346,-91.80103 70.28853,-107.67338c3.37968,-4.96925 4.28178,-1.96985 4.28178,-1.96985c0,0 -11.63909,31.55445 -22.79079,49.1196c-13.43361,21.15945 -52.24696,69.07323 -52.24696,69.07323z" fill="#ffffff" stroke="none" stroke-width="0"/><path d="M239.26131,240.93105c-31.98302,-36.43783 -82.93455,-115.15272 -73.19298,-116.49576c51.27096,-7.06857 90.55778,-7.29957 148.23072,-1.69707c10.05714,0.97697 -72.38517,121.21487 -75.03773,118.19284z" fill="none" stroke="#000000" stroke-width="9"/></g></g></svg>