<svg version="1.1" xmlns="http://www.w3.org/2000/svg" xmlns:xlink="http://www.w3.org/1999/xlink" width="159.53496" height="159.87026" viewBox="0,0,159.53496,159.87026"><g transform="translate(-160.23252,-98.72131)"><g data-paper-data="{&quot;isPaintingLayer&quot;:true}" fill-rule="nonzero" stroke-linecap="butt" stroke-linejoin="miter" stroke-miterlimit="10" stroke-dasharray="" stroke-dashoffset="0" style="mix-blend-mode: normal"><path d="M160.23252,258.59157v-159.05932h159.53496v159.05932z" fill="none" stroke="#65a965" stroke-width="0"/><path d="M220.31507,227.4295c-17.43634,11.35204 -47.09025,25.02681 -47.09025,25.02681c0,0 -3.87998,-56.599 -3.87998,-82.78394c0,-22.7414 3.87998,-65.45648 3.87998,-65.45648c0,0 21.31784,10.46642 35.62105,19.2262c21.66231,13.26674 81.70501,52.62832 81.70501,52.62832c0,0 -49.23154,37.68412 -70.23581,51.35909z" data-paper-data="{&quot;index&quot;:null}" fill="#87a3ad" stroke="none" stroke-width="0"/><path d="M290.55087,176.0704c0,0 -47.46631,39.35932 -68.47058,53.03429c-17.43634,11.35205 -48.85547,23.35162 -48.85547,23.35162c0,0 -3.00953,-0.86771 1.9207,-4.30405c15.74773,-10.97607 106.86166,-71.51658 106.86166,-71.51658c0,0 -88.72436,-56.50822 -105.41655,-67.62073c-5.80387,-3.86381 -3.36581,-4.79907 -3.36581,-4.79907c0,0 27.26713,7.52075 41.57035,16.28053c21.66231,13.26675 75.75571,55.574 75.75571,55.574z" data-paper-data="{&quot;index&quot;:null}" fill="#ffffff" stroke="none" stroke-width="0"/><path d="M172.96617,252.70178c-6.26237,-57.60502 -6.48115,-96.89191 0,-148.24043c1.23143,-9.7563 80.52447,40.29075 117.32605,71.85453c3.0522,2.61779 -116.23401,86.43119 -117.32605,76.3859z" data-paper-data="{&quot;index&quot;:null}" fill="none" stroke="#000000" stroke-width="9"/></g></g></svg>