<svg version="1.1" xmlns="http://www.w3.org/2000/svg" xmlns:xlink="http://www.w3.org/1999/xlink" width="159.53496" height="159.31586" viewBox="0,0,159.53496,159.31586"><g transform="translate(-160.23252,-100.34207)"><g data-paper-data="{&quot;isPaintingLayer&quot;:true}" fill-rule="nonzero" stroke-linecap="butt" stroke-linejoin="miter" stroke-miterlimit="10" stroke-dasharray="" stroke-dashoffset="0" style="mix-blend-mode: normal"><path d="M160.23252,259.52966v-159.05932h159.53496v159.05932z" fill="none" stroke="#65a965" stroke-width="0"/><path d="M178.81806,177.69117c0,0 60.0427,-39.36158 81.70501,-52.62832c14.30321,-8.75978 35.62105,-19.2262 35.62105,-19.2262c0,0 3.87998,42.71508 3.87998,65.45648c0,26.18494 -3.87998,82.78394 -3.87998,82.78394c0,0 -29.65391,-13.67477 -47.09025,-25.02681c-21.00427,-13.67497 -70.23581,-51.35909 -70.23581,-51.35909z" fill="#f7941d" stroke="none" stroke-width="0"/><path d="M178.81806,177.69117c0,0 54.0934,-42.30725 75.75571,-55.574c14.30322,-8.75978 41.57035,-16.28053 41.57035,-16.28053c0,0 2.43806,0.93526 -3.36581,4.79907c-16.69219,11.11251 -105.41655,67.62073 -105.41655,67.62073c0,0 91.11393,60.54051 106.86166,71.51658c4.93023,3.43634 1.9207,4.30405 1.9207,4.30405c0,0 -31.41913,-11.99957 -48.85547,-23.35162c-21.00427,-13.67497 -68.47058,-53.03429 -68.47058,-53.03429z" fill="#ffffff" stroke="none" stroke-width="0"/><path d="M179.07672,177.93664c36.80158,-31.56378 116.09462,-81.61083 117.32605,-71.85453c6.48115,51.34852 6.26237,90.63541 0,148.24043c-1.09204,10.04529 -120.37825,-73.76811 -117.32605,-76.3859z" fill="none" stroke="#975b12" stroke-width="9"/></g></g></svg>