<svg version="1.1" xmlns="http://www.w3.org/2000/svg" xmlns:xlink="http://www.w3.org/1999/xlink" width="159.53496" height="159.05932" viewBox="0,0,159.53496,159.05932"><g transform="translate(-160.23252,-100.47034)"><g data-paper-data="{&quot;isPaintingLayer&quot;:true}" fill-rule="nonzero" stroke-linecap="butt" stroke-linejoin="miter" stroke-miterlimit="10" stroke-dasharray="" stroke-dashoffset="0" style="mix-blend-mode: normal"><path d="M160.23252,259.52966v-159.05932h159.53496v159.05932z" fill="none" stroke="#65a965" stroke-width="0"/><path d="M239.01882,118.80753c0,0 37.11805,49.65972 50.55166,70.81917c11.15168,17.56516 24.48608,47.37368 24.48608,47.37368c0,0 -56.63972,3.23178 -82.82294,2.93201c-22.73991,-0.26034 -65.40777,-4.62907 -65.40777,-4.62907c0,0 10.70978,-21.19662 19.63273,-35.39861c13.51387,-21.50901 53.56024,-81.09716 53.56024,-81.09716z" data-paper-data="{&quot;index&quot;:null}" fill="#ff9999" stroke="none" stroke-width="0"/><path d="M239.0188,118.80755c0,0 38.81335,47.91378 52.24696,69.07323c11.1517,17.56515 22.79079,49.1196 22.79079,49.1196c0,0 -0.9021,2.9994 -4.28178,-1.96985c-10.79507,-15.87235 -70.28853,-107.67338 -70.28853,-107.67338c0,0 -57.52024,88.07164 -68.82312,104.63552c-3.93,5.75926 -4.83728,3.31065 -4.83728,3.31065c0,0 7.83241,-27.17924 16.75536,-41.38124c13.51388,-21.50901 56.43762,-75.11453 56.43762,-75.11453z" data-paper-data="{&quot;index&quot;:null}" fill="#ffffff" stroke="none" stroke-width="0"/><path d="M239.26132,119.06899c2.65256,-3.02203 85.09487,117.21587 75.03773,118.19284c-57.67294,5.6025 -96.95976,5.3715 -148.23072,-1.69707c-9.74157,-1.34304 41.20996,-80.05793 73.19298,-116.49576z" data-paper-data="{&quot;index&quot;:null}" fill="none" stroke="#b76e6e" stroke-width="9"/></g></g></svg>